<svg id="Layer_1" enable-background="new 0 0 512.001 512.001" height="512" viewBox="0 0 512.001 512.001" width="512" xmlns="http://www.w3.org/2000/svg"><g><g clip-rule="evenodd" fill-rule="evenodd"><ellipse cx="70.001" cy="155.408" fill="#ffc144" rx="20" ry="20" transform="matrix(.987 -.16 .16 .987 -23.99 13.22)"/><ellipse cx="150.002" cy="155.408" fill="#ffc144" rx="20" ry="20" transform="matrix(.973 -.23 .23 .973 -31.693 38.621)"/><path d="m70.001 175.408c-11.046 0-20-8.954-20-20s8.954-20 20-20 20 8.954 20 20-8.954 20-20 20zm80.001 39.703h108.599c17.432-24.25 45.646-40.228 77.628-40.909-4.417-10.985-15.197-18.794-27.715-18.794 0-32.973-26.73-59.703-59.703-59.703-1.694 0-3.37.075-5.028.213-12.234-34.893-45.455-59.918-84.527-59.918-39.071 0-72.293 25.024-84.526 59.917-1.658-.138-3.333-.213-5.027-.213-32.973.001-59.703 26.731-59.703 59.704s26.73 59.703 59.703 59.703h.298zm-20-59.703c0-11.046 8.954-20 20-20s20 8.954 20 20-8.954 20-20 20-20-8.954-20-20z" fill="#a7bdcd"/><path d="m356.545 285.09c11.046 0 20 8.954 20 20s-8.954 20-20 20-20-8.954-20-20 8.954-20 20-20zm-100.001 20c0-11.046 8.954-20 20-20s20 8.954 20 20-8.954 20-20 20c-11.046-.001-20-8.955-20-20zm79.685-130.889c-31.982.683-60.196 16.661-77.628 40.911-5.41 7.525-9.781 15.848-12.904 24.756-1.818-.152-3.656-.233-5.513-.233-16.113 0-30.867 5.822-42.271 15.478-14.181 12.007-23.184 29.94-23.184 49.977-18 0-32.727 14.727-32.727 32.727 0 4.37.869 8.547 2.442 12.366 10.392 4.371 19.419 11.349 26.262 20.113 1.319.164 2.662.248 4.024.248h261.818c36.15 0 65.455-29.305 65.455-65.455s-29.305-65.455-65.455-65.455c-1.857 0-3.694.081-5.511.233-13.412-38.255-49.834-65.69-92.669-65.69-.717.001-1.429.009-2.139.024zm100.317 110.889c11.046 0 20 8.954 20 20s-8.954 20-20 20-20-8.954-20-20 8.955-20 20-20z" fill="#fff"/><g fill="#ffc144"><ellipse cx="276.544" cy="305.09" rx="20" ry="20" transform="matrix(.707 -.707 .707 .707 -134.733 284.905)"/><ellipse cx="356.545" cy="305.09" rx="20" ry="20" transform="matrix(.973 -.23 .23 .973 -60.557 90.079)"/><ellipse cx="436.546" cy="305.09" rx="20" ry="20" transform="matrix(.707 -.707 .707 .707 -87.87 398.044)"/></g><path d="m222.342 410.546c-7.545-13.043-21.647-21.818-37.798-21.818-1.238 0-2.463.054-3.675.155-2.375-6.774-5.832-13.039-10.164-18.587-6.843-8.765-15.87-15.742-26.262-20.113-7.797-3.28-16.363-5.092-25.354-5.092-28.557 0-52.838 18.29-61.779 43.793-1.212-.101-2.437-.155-3.674-.155-24.1 0-43.636 19.537-43.636 43.636s19.536 43.635 43.636 43.635h174.544c12 0 21.818-9.818 21.818-21.818s-9.818-21.818-21.818-21.818c0-7.948-2.125-15.4-5.838-21.818zm-83.253 0c0 11.046-8.954 20-20 20s-20-8.954-20-20 8.954-20 20-20 20 8.954 20 20z" fill="#a7bdcd"/><ellipse cx="119.089" cy="410.546" fill="#ffc144" rx="20" ry="20" transform="matrix(.707 -.707 .707 .707 -255.419 204.455)"/></g><g><path d="m512.001 305.089c0-41.194-33.183-74.785-74.223-75.445-16.429-38.241-53.634-63.857-95.436-65.391-5.536-8.924-14.297-15.262-24.389-17.716-4.302-33.71-32.775-59.975-67.438-60.811-15.715-36.012-51.505-59.726-91.259-59.726-39.755 0-75.544 23.714-91.26 59.726-37.649.908-67.996 31.818-67.996 69.683 0 35.141 26.145 64.275 60.001 69.013v60.667c0 16.542 13.458 30 30 30h48.564c-3.888 6.165-6.243 13.386-6.53 21.129-4.227-.738-8.554-1.128-12.947-1.128-29.557 0-56.223 17.299-68.471 43.722-28.175 1.57-50.617 24.989-50.617 53.552 0 29.575 24.061 53.636 53.636 53.636h174.544c17.545 0 31.818-14.273 31.818-31.818 0-14.308-9.491-26.439-22.509-30.43-.175-1.082-.394-2.148-.633-3.207h179.691c16.542 0 29.999-13.458 29.999-30v-10.684c36.893-4.909 65.455-36.557 65.455-74.772zm-492.001-149.68c0-27.406 22.297-49.703 49.703-49.703 1.367 0 2.78.06 4.198.178 4.536.383 8.758-2.359 10.265-6.657 11.162-31.837 41.338-53.227 75.09-53.227s63.928 21.39 75.09 53.226c1.507 4.298 5.729 7.047 10.264 6.657 1.42-.118 2.833-.178 4.201-.178 27.407 0 49.704 22.297 49.704 49.703 0 5.522 4.478 10 10 10 2.403 0 4.729.441 6.897 1.247-24.495 5.328-46.322 19.022-61.777 38.456h-93.632v-21.424c11.639-4.128 20-15.243 20-28.28 0-16.542-13.458-29.999-30-29.999s-30 13.457-30 29.999c0 13.036 8.361 24.152 20 28.28v21.424h-60.002v-21.424c11.639-4.128 20-15.243 20-28.28 0-16.542-13.458-29.999-30-29.999s-30 13.457-30 29.999c0 13.036 8.361 24.152 20 28.28v20.467c-22.777-4.526-40.001-24.659-40.001-48.745zm174.453 89.704h-24.451c-5.514 0-10-4.486-10-10v-10.001h81.039c-.725 1.492-1.429 2.999-2.088 4.532-16.705.269-32.106 5.996-44.5 15.469zm-44.451-79.705c-5.514 0-10-4.486-10-10s4.486-9.999 10-9.999 10 4.485 10 9.999-4.486 10-10 10zm-80.001 0c-5.514 0-10-4.486-10-10s4.486-9.999 10-9.999 10 4.485 10 9.999-4.486 10-10 10zm10 119.681v-59.978h60.001v10.001c0 16.542 13.458 30 30 30h6.225c-5.595 8.919-9.372 19.083-10.821 29.977h-75.405c-5.514 0-10-4.486-10-10zm138.179 147.275c0 5.522 4.478 10 10 10 6.517 0 11.818 5.302 11.818 11.818s-5.302 11.818-11.818 11.818h-174.544c-18.547 0-33.636-15.089-33.636-33.636s15.089-33.636 33.636-33.636c.932 0 1.887.04 2.84.12 4.54.378 8.765-2.357 10.271-6.656 7.78-22.191 28.814-37.102 52.342-37.102s44.563 14.91 52.343 37.102c1.507 4.298 5.73 7.045 10.264 6.657.968-.08 1.926-.121 2.849-.121 3.809 0 7.468.646 10.884 1.817h-48.059c-4.128-11.639-15.243-20-28.28-20-16.542 0-29.999 13.458-29.999 30s13.457 30 29.999 30c13.036 0 24.152-8.361 28.28-20h68.662c1.384 3.68 2.148 7.661 2.148 11.819zm-89.091-21.819c0 5.514-4.486 10-10 10s-9.999-4.486-9.999-10 4.485-10 9.999-10 10 4.487 10 10zm307.457-95.456c-5.514 0-9.999-4.486-9.999-10s4.485-10 9.999-10 10 4.486 10 10-4.486 10-10 10zm10 44.535v-26.255c11.639-4.128 20-15.243 20-28.28 0-16.542-13.458-30-30-30s-29.999 13.458-29.999 30c0 13.036 8.36 24.152 19.999 28.28v27.175h-105.005c-5.522 0-10 4.478-10 10s4.478 10 10 10h105.005v10.001c0 5.514-4.485 10-9.999 10h-188.858c-7.134-9.647-17.419-16.823-29.324-20.001h33.175c5.522 0 10-4.478 10-10s-4.478-10-10-10h-55.954c-6.461-7.286-14.271-13.254-22.968-17.575-.396-1.681-.619-3.402-.619-5.152 0-12.532 10.195-22.728 22.728-22.728h73.536c4.128 11.639 15.243 20 28.28 20 16.542 0 30-13.458 30-30s-13.458-30-30-30c-13.036 0-24.152 8.361-28.28 20h-62.615c2.136-11.673 7.933-22.076 16.16-29.977h134.736c5.514 0 9.999 4.486 9.999 10v1.697c-11.639 4.128-19.999 15.243-19.999 28.28 0 16.542 13.457 30 29.999 30s30-13.458 30-30c0-13.036-8.361-24.152-20-28.28v-1.697c0-16.542-13.457-30-29.999-30h-82.344c.371-.603.689-1.247.931-1.937 12.372-35.288 45.821-58.998 83.232-58.998 37.412 0 70.861 23.71 83.233 58.998 1.506 4.297 5.731 7.035 10.267 6.657 1.585-.132 3.159-.199 4.681-.199 30.578 0 55.455 24.877 55.455 55.455.002 27.164-19.634 49.812-45.453 54.536zm-180.002-54.535c0-5.514 4.486-10 10-10s10 4.486 10 10-4.486 10-10 10-10-4.486-10-10zm90.001-10c5.514 0 10 4.486 10 10s-4.486 10-10 10-9.999-4.486-9.999-10 4.485-10 9.999-10z"/><path d="m331.083 90.597c13.221-13.222 30.8-20.503 49.498-20.503 18.697 0 36.276 7.281 49.497 20.503 1.953 1.952 4.512 2.929 7.071 2.929s5.118-.977 7.071-2.929c3.905-3.905 3.905-10.237 0-14.143-16.999-16.999-39.6-26.36-63.64-26.36s-46.642 9.361-63.641 26.36c-3.905 3.905-3.905 10.237 0 14.143 3.908 3.904 10.238 3.904 14.144 0z"/><path d="m408.865 121.809c2.56 0 5.119-.977 7.071-2.93 3.905-3.905 3.905-10.237-.001-14.142-9.443-9.443-22-14.644-35.354-14.644-13.355 0-25.912 5.2-35.355 14.644-3.906 3.904-3.906 10.236-.001 14.142 3.904 3.906 10.237 3.906 14.142.001 5.667-5.666 13.201-8.786 21.215-8.786 8.013 0 15.547 3.12 21.214 8.786 1.951 1.953 4.51 2.929 7.069 2.929z"/><path d="m370.577 140.094c0 5.522 4.478 10 10 10h.007c5.522 0 9.997-4.478 9.997-10s-4.481-10-10.004-10-10 4.478-10 10z"/><path d="m276.544 360.544h-.007c-5.522 0-9.996 4.478-9.996 10s4.48 10 10.003 10 10-4.478 10-10-4.478-10-10-10z"/></g></g></svg>