<svg id="Layer_1" enable-background="new 0 0 512.002 512.002" height="512" viewBox="0 0 512.002 512.002" width="512" xmlns="http://www.w3.org/2000/svg"><g><g clip-rule="evenodd" fill-rule="evenodd"><path d="m346.001 174.286h-180c-11 0-20 9-20 20s9 20 20 20h180c11 0 20-9 20-20s-9-20-20-20z" fill="#ff5a58"/><path d="m276.497 254.286h-40.958c-5.63 0-7.532 5.302-10.24 10.24l-5.353 9.76h-66.505c19.068 43.846 70.466 75.715 102.56 75.715s83.492-31.869 102.559-75.715h-66.489l-5.335-9.76c-2.699-4.941-4.609-10.24-10.239-10.24z" fill="#ffdcd5"/><path d="m151.715 114.286h208.572c25.143 0 45.714 20.572 45.714 45.714 0-82.5-67.5-150-150-150s-150 67.5-150 150c0-25.142 20.571-45.714 45.714-45.714z" fill="#ffc144"/><g><path d="m296.001 338.415c-14.231 7.41-28.381 11.586-40 11.586s-25.769-4.177-40-11.586v56.664l-79.999 26.924c-3.301 1.111-6.574 2.288-9.787 3.544 32.206 22.223 78.43 36.152 129.786 36.152s97.581-13.929 129.786-36.152c-3.214-1.256-6.486-2.433-9.787-3.544l-79.999-26.924z" fill="#ffdcd5"/><path d="m256.001 461.699c-51.356 0-97.581-13.929-129.786-36.152-27.232 10.643-50.212 26.939-50.212 56.456v20h359.997v-20c0-29.516-22.981-45.812-50.212-56.456-32.206 22.223-78.431 36.152-129.787 36.152z" fill="#5cd0b3"/></g><path d="m296.001 338.415v29.079h110v-152.493c0 13.75-11.249 25-25 25l-15-.001c0 42.927-35.239 80.316-70 98.415z" fill="#ffc144"/><path d="m216.001 338.415v29.079h-110v-152.493c0 13.75 11.249 25 25 25l15-.001c0 42.927 35.239 80.316 70 98.415z" fill="#ffc144"/><path d="m166.001 174.286h180c11 0 20 9 20 20s-9 20-20 20h-180c-11 0-20-9-20-20s9-20 20-20zm-12.56 100h66.505l5.353-9.76c2.708-4.937 4.61-10.24 10.24-10.24h40.958c5.63 0 7.54 5.3 10.24 10.24l5.335 9.76h66.489 1.726c25.142 0 45.714-20.572 45.714-45.714v-68.572c0-25.142-20.571-45.714-45.714-45.714h-208.572c-25.143 0-45.714 20.572-45.714 45.714v68.572c0 25.143 20.572 45.714 45.714 45.714z" fill="#6d91ac"/></g><g><path d="m424.257 436c-10.641-9.171-25.382-16.851-45.067-23.476l-73.188-24.632v-10.399h100c5.523 0 10-4.478 10-10v-207.493c0-42.572-16.688-82.706-46.991-113.009-30.304-30.303-70.438-46.991-113.01-46.991s-82.706 16.688-113.009 46.991-46.991 70.437-46.991 113.009v207.493c0 5.522 4.477 10 10 10h100v10.399l-73.189 24.632c-19.685 6.625-34.427 14.305-45.067 23.476-14.427 12.436-21.743 27.913-21.743 46.002v20c0 5.522 4.477 10 10 10h359.998c5.523 0 10-4.478 10-10v-20c0-18.089-7.316-33.565-21.743-46.002zm-254.07-151.714h49.76c3.651 0 7.013-1.99 8.768-5.191l5.353-9.761c.394-.718.772-1.441 1.146-2.158.461-.885 1.091-2.093 1.589-2.89h38.435c.501.801 1.135 2.019 1.599 2.909.368.706.74 1.419 1.126 2.126l5.334 9.761c1.753 3.209 5.118 5.204 8.775 5.204h49.761c-20.824 32.24-60.337 55.715-85.831 55.715-25.28 0-64.976-23.534-85.815-55.715zm-54.186-124.286c0-19.692 16.021-35.714 35.714-35.714h208.572c19.693 0 35.714 16.021 35.714 35.714v68.572c0 19.692-16.021 35.714-35.714 35.714h-62.285l-2.49-4.557c-.321-.588-.63-1.183-.936-1.771-2.488-4.778-7.119-13.673-18.079-13.673h-40.958c-10.944 0-15.572 8.873-18.059 13.64-.311.595-.623 1.196-.949 1.791l-2.506 4.569h-62.31c-19.693 0-35.714-16.021-35.714-35.714zm190 197.493v-13.082c23.415-13.37 46.007-34.538 58.994-60.339 11.742-.988 22.459-5.624 31.005-12.781v86.201h-89.999zm-50-337.493c60.065 0 111.41 38.025 131.244 91.264-7.994-4.44-17.184-6.978-26.958-6.978h-208.572c-9.774 0-18.964 2.538-26.958 6.978 19.834-53.239 71.179-91.264 131.244-91.264zm-50.001 337.493h-90v-86.201c8.546 7.156 19.262 11.792 31.004 12.78 12.966 25.723 35.596 46.863 58.996 60.248v13.173c.001 0 .001 0 0 0zm13.191 47.063c4.069-1.369 6.81-5.184 6.81-9.478v-41.271c10.671 4.015 20.966 6.194 30 6.194 9.072 0 19.358-2.154 30-6.136v41.213c0 4.294 2.741 8.108 6.81 9.478l69.449 23.373c-29.747 15.231-67.435 23.769-106.259 23.769s-76.513-8.539-106.259-23.769zm206.809 87.446h-339.998v-10c0-19.441 12.196-33.697 39.105-45.191 34.53 22.195 82.036 34.888 130.894 34.888 48.857 0 96.363-12.693 130.894-34.887 26.908 11.493 39.105 25.749 39.105 45.19z"/><path d="m272.517 307.372c5.201-1.857 7.912-7.58 6.054-12.781s-7.581-7.911-12.781-6.055c-2.711.969-5.32 1.771-9.79 1.771-4.469 0-7.078-.802-9.79-1.771-5.201-1.854-10.923.854-12.78 6.055-1.857 5.202.854 10.924 6.055 12.781 4.934 1.762 9.63 2.935 16.516 2.935s11.583-1.173 16.516-2.935z"/><path d="m166.001 224.286h180c16.542 0 30-13.458 30-30s-13.458-30-30-30h-44.996c-5.523 0-10 4.478-10 10s4.477 10 10 10h44.996c5.514 0 10 4.486 10 10s-4.486 10-10 10h-180c-5.514 0-10-4.486-10-10s4.486-10 10-10h45.004c5.523 0 10-4.478 10-10s-4.477-10-10-10h-45.004c-16.542 0-30 13.458-30 30s13.458 30 30 30z"/><path d="m256.008 184.286c5.523 0 10-4.478 10-10s-4.477-10-10-10h-.007c-5.523 0-9.996 4.478-9.996 10s4.48 10 10.003 10z"/></g></g></svg>